<?xml version="1.0" standalone="no"?>
<!DOCTYPE svg PUBLIC "-//W3C//DTD SVG 20010904//EN"
 "http://www.w3.org/TR/2001/REC-SVG-20010904/DTD/svg10.dtd">
<svg version="1.0" xmlns="http://www.w3.org/2000/svg"
 width="1200.000000pt" height="1200.000000pt" viewBox="0 0 1200.000000 1200.000000"
 preserveAspectRatio="xMidYMid meet">

<g transform="translate(0.000000,1200.000000) scale(0.100000,-0.100000)"
fill="#000000" stroke="none">
<path d="M5645 11520 c-291 -21 -596 -65 -862 -125 -2074 -465 -3713 -2104
-4178 -4178 -303 -1354 -88 -2782 599 -3971 1017 -1760 2897 -2821 4916 -2772
500 12 927 75 1395 207 958 271 1864 826 2532 1551 388 422 680 846 923 1343
293 601 465 1209 537 1905 24 231 24 809 0 1040 -118 1141 -546 2166 -1262
3025 -491 590 -1123 1084 -1820 1425 -598 292 -1218 467 -1895 535 -183 19
-712 27 -885 15z m845 -305 c1117 -107 2136 -549 2987 -1297 54 -47 172 -162
264 -255 660 -672 1119 -1494 1343 -2405 110 -444 149 -780 149 -1258 0 -478
-39 -812 -149 -1260 -326 -1332 -1182 -2496 -2366 -3218 -581 -354 -1258 -600
-1928 -701 -275 -41 -472 -55 -790 -55 -406 0 -710 30 -1065 105 -1205 253
-2264 905 -3031 1865 -512 640 -862 1386 -1033 2199 -75 355 -105 659 -105
1065 0 406 30 710 105 1065 253 1205 905 2264 1865 3031 589 470 1276 809
2006 988 347 86 590 121 1028 150 116 8 562 -4 720 -19z"/>
<path d="M5665 11004 c-22 -2 -92 -9 -155 -15 -785 -72 -1572 -349 -2245 -787
-1202 -782 -2012 -2044 -2224 -3462 -40 -270 -46 -367 -46 -740 0 -373 6 -470
46 -740 107 -714 364 -1392 757 -1995 614 -943 1538 -1659 2602 -2017 355
-119 709 -196 1115 -240 162 -18 808 -18 970 0 635 70 1182 225 1717 488 231
114 359 187 558 319 1193 789 1989 2036 2199 3445 40 270 46 367 46 740 0 234
-5 408 -13 485 -70 635 -225 1182 -488 1717 -114 231 -187 359 -319 558 -778
1176 -1997 1965 -3386 2190 -270 43 -386 52 -744 55 -192 2 -368 1 -390 -1z
m170 -456 c3 -24 21 -189 40 -368 19 -179 37 -339 39 -357 5 -35 21 -30 -146
-49 l-48 -6 -181 276 c-100 152 -184 275 -186 273 -2 -2 11 -133 28 -291 17
-158 30 -288 28 -290 -2 -2 -38 -5 -79 -7 l-75 -4 -42 380 c-23 209 -42 388
-42 397 -1 21 13 25 116 33 l82 7 137 -208 c75 -115 157 -240 181 -278 24 -37
46 -67 47 -65 2 2 -9 117 -25 255 -40 370 -41 328 6 335 22 3 57 7 77 8 36 1
37 0 43 -41z m765 12 c41 -6 108 -20 148 -31 80 -24 79 -23 61 -109 -9 -42
-14 -50 -27 -44 -133 55 -249 69 -329 39 -106 -41 -174 -143 -177 -265 -3
-179 103 -290 278 -290 l64 0 6 43 c3 23 8 69 12 103 l6 61 -83 9 -84 9 3 55
c2 30 7 59 12 64 7 7 309 -21 319 -30 7 -6 -41 -419 -50 -428 -4 -5 -66 -11
-136 -14 -202 -7 -330 33 -429 135 -77 79 -108 209 -84 350 31 188 154 317
325 342 81 12 80 12 165 1z m740 -175 c157 -48 286 -88 287 -89 3 -3 -27 -107
-33 -117 -2 -4 -52 8 -111 27 -59 18 -108 32 -110 31 -1 -2 -46 -147 -99 -323
-53 -175 -97 -320 -98 -321 -3 -4 -141 39 -148 46 -4 4 35 147 87 319 52 172
95 317 95 322 0 5 -47 23 -105 41 -58 18 -105 36 -105 42 0 30 33 115 43 112
7 -2 140 -43 297 -90z m-2363 -325 c56 -206 103 -380 103 -385 0 -11 -148 -56
-154 -46 -4 6 -207 748 -210 765 -1 10 110 45 139 42 17 -1 32 -50 122 -376z
m-402 -105 c88 -196 161 -361 163 -368 2 -11 -136 -83 -144 -74 -1 1 -32 70
-69 152 -37 83 -70 153 -74 157 -5 6 -270 -108 -285 -123 -4 -3 26 -77 65
-163 40 -86 70 -158 68 -160 -11 -8 -142 -66 -145 -63 -2 2 -78 167 -169 367
l-165 365 72 33 c39 18 75 29 79 25 4 -4 35 -68 68 -142 34 -74 63 -136 65
-138 7 -7 286 122 285 132 0 6 -29 73 -64 150 l-63 140 66 32 c37 17 72 32 77
32 6 0 82 -159 170 -354z m3418 170 c137 -29 256 -117 308 -230 25 -52 30 -77
31 -137 0 -91 -13 -143 -60 -232 -134 -256 -398 -309 -630 -127 -84 66 -140
203 -127 308 26 207 179 395 344 423 25 4 51 8 56 9 6 0 40 -6 78 -14z m-4440
-334 c15 -27 27 -53 27 -58 0 -4 -22 -16 -50 -26 -106 -38 -170 -115 -148
-178 23 -66 65 -74 208 -40 138 34 199 24 268 -42 121 -116 99 -270 -55 -392
-55 -43 -171 -105 -196 -105 -11 0 -77 101 -77 119 0 3 24 12 52 19 146 34
234 157 163 227 -30 31 -65 32 -177 5 -157 -38 -239 -19 -303 69 -80 108 -68
221 34 321 53 52 179 129 211 130 8 0 27 -22 43 -49z m5227 -138 c38 -32 69
-64 69 -70 1 -7 -26 -129 -60 -270 -33 -142 -66 -284 -74 -315 -7 -32 -12 -58
-10 -58 1 0 87 99 189 220 103 121 192 220 199 220 7 -1 35 -22 64 -48 l51
-47 -258 -303 c-142 -167 -262 -303 -266 -302 -5 1 -39 27 -76 58 -44 36 -68
63 -68 77 1 11 34 158 74 328 40 169 72 307 70 307 -1 0 -89 -101 -194 -225
l-192 -226 -59 52 -59 51 112 131 c61 73 177 210 257 305 80 94 149 172 154
172 4 0 39 -26 77 -57z m-2420 -328 c589 -65 1150 -283 1618 -629 283 -209
548 -479 755 -768 321 -450 530 -1001 592 -1568 19 -176 19 -544 0 -720 -74
-675 -348 -1307 -786 -1815 -90 -104 -283 -297 -384 -383 -500 -424 -1132
-694 -1795 -767 -176 -19 -544 -19 -720 0 -623 69 -1197 302 -1700 691 -154
118 -461 427 -580 582 -332 431 -547 910 -649 1443 -68 357 -68 861 0 1218
102 533 317 1012 649 1443 119 155 426 464 580 582 498 385 1073 620 1685 690
167 19 566 20 735 1z m-3215 -295 c198 -78 363 -145 367 -149 4 -4 -18 -36
-50 -71 l-58 -64 -93 37 -92 37 -78 -82 c-43 -46 -92 -100 -110 -120 l-32 -37
41 -82 c36 -71 40 -85 30 -105 -15 -27 -98 -110 -104 -103 -10 10 -366 759
-366 771 0 7 28 40 61 74 61 61 62 62 93 49 17 -7 193 -77 391 -155z m-415
-718 l155 -150 -40 -76 c-22 -41 -45 -83 -52 -92 -10 -14 -43 -6 -319 76 -168
50 -308 89 -309 88 -2 -2 98 -93 222 -203 123 -110 231 -208 240 -217 14 -15
11 -25 -36 -107 -29 -50 -57 -88 -64 -86 -7 2 -181 47 -387 100 -206 52 -383
99 -392 103 -14 6 -11 16 24 77 23 39 42 71 43 73 1 1 141 -38 311 -87 170
-50 310 -89 311 -87 2 1 -104 96 -235 210 -130 115 -238 212 -240 216 -4 11
98 190 108 190 4 0 142 -41 306 -90 163 -50 299 -88 301 -86 3 3 -385 362
-445 412 l-25 21 38 71 39 71 145 -139 c80 -76 216 -206 301 -288z m7033 309
c22 -34 38 -63 36 -65 -2 -2 -101 -63 -219 -136 -118 -74 -231 -150 -252 -170
-45 -44 -63 -103 -46 -151 27 -81 76 -119 152 -119 60 0 68 4 319 158 119 73
221 130 227 127 18 -11 82 -127 74 -134 -15 -13 -446 -277 -484 -296 -20 -10
-66 -20 -106 -23 -61 -4 -79 -1 -119 19 -64 32 -138 117 -183 209 -31 64 -36
85 -37 145 0 59 4 77 28 117 15 26 44 61 65 79 50 42 484 310 496 306 5 -2 27
-31 49 -66z m487 -901 l32 -90 -130 -138 c-72 -75 -154 -159 -182 -187 -28
-27 -74 -76 -102 -108 -46 -53 -48 -56 -22 -46 72 28 518 179 529 179 10 0 61
-138 53 -144 -21 -16 -752 -256 -758 -250 -11 12 -60 151 -60 170 0 13 82 101
375 402 l90 93 -265 -92 c-146 -50 -275 -94 -287 -96 -19 -4 -24 3 -44 66 -13
39 -21 72 -18 75 8 7 724 254 740 255 12 1 25 -24 49 -89z m-7949 -721 c48
-10 51 -13 46 -38 -3 -14 -22 -116 -42 -226 -21 -110 -40 -203 -44 -207 -6 -6
-777 134 -786 144 -5 5 20 146 27 153 2 3 147 -22 323 -55 175 -33 324 -60
330 -60 8 0 22 52 41 150 18 100 32 150 40 150 7 0 36 -5 65 -11z m8204 -194
c8 -43 14 -79 12 -80 -7 -6 -787 -138 -791 -134 -7 7 -30 149 -25 153 4 5 782
144 786 141 2 -1 9 -37 18 -80z m60 -386 c3 -45 3 -85 -2 -89 -4 -5 -143 -56
-307 -114 -165 -59 -301 -108 -304 -110 -2 -2 5 -7 15 -10 10 -3 148 -44 308
-91 159 -47 293 -89 298 -94 4 -4 7 -41 5 -83 l-3 -74 -402 124 -401 125 -7
94 c-4 54 -4 98 2 104 7 7 762 294 784 298 4 1 10 -36 14 -80z m-8342 -190
c-4 -4 -45 -21 -90 -39 l-83 -31 0 -163 0 -162 90 -33 90 -34 0 -46 c0 -25 3
-64 7 -85 6 -36 5 -39 -15 -34 -12 4 -195 73 -407 155 l-385 148 0 95 0 95
398 156 397 156 3 -85 c2 -47 -1 -89 -5 -93z m7949 -648 c203 -32 371 -60 374
-63 5 -6 -63 -458 -70 -466 -4 -3 -117 15 -122 21 -2 2 8 70 21 152 13 82 23
150 22 151 -8 8 -183 32 -188 26 -4 -4 -14 -59 -23 -122 -24 -164 -18 -152
-84 -144 -32 3 -60 8 -63 10 -3 2 4 65 16 141 13 76 21 139 20 141 -8 9 -208
33 -214 26 -5 -5 -18 -76 -31 -157 -19 -126 -25 -147 -39 -143 -9 3 -37 8 -63
12 -27 3 -48 7 -48 9 0 10 71 452 75 461 2 6 14 10 27 7 13 -2 188 -30 390
-62z m-7913 -81 c6 -27 13 -67 17 -87 l5 -38 -116 -75 c-158 -101 -165 -108
-165 -167 0 -80 -2 -79 164 -44 81 17 153 31 161 31 8 0 19 -27 30 -76 9 -41
15 -77 13 -79 -6 -6 -781 -165 -785 -162 -6 7 -52 231 -63 307 -24 168 42 266
187 278 65 5 134 -25 166 -73 l21 -32 21 31 c17 26 307 235 327 236 3 0 11
-22 17 -50z m7876 -655 c138 -48 254 -91 259 -96 10 -9 -72 -244 -114 -330
-35 -68 -96 -126 -146 -135 -54 -10 -134 12 -178 48 -45 37 -66 81 -66 140 0
24 -4 38 -8 32 -17 -26 -62 -37 -186 -45 -72 -4 -158 -8 -192 -9 l-61 0 29 83
29 84 161 7 c88 3 169 11 180 17 21 11 63 94 54 108 -3 4 -73 32 -156 61 -90
31 -150 57 -147 64 2 6 14 41 27 78 l23 66 121 -43 c67 -24 234 -82 371 -130z
m-7621 -257 c14 -35 26 -68 26 -75 0 -6 -33 -25 -72 -41 -40 -17 -179 -74
-308 -127 -129 -53 -236 -98 -237 -98 -1 -1 18 -49 42 -107 l43 -105 -50 -22
c-28 -13 -56 -23 -62 -23 -6 0 -30 46 -53 103 -23 56 -75 184 -117 285 l-75
183 56 25 c31 13 60 21 64 17 4 -5 24 -50 44 -101 21 -50 40 -94 44 -96 4 -3
141 51 306 119 165 68 305 124 311 125 6 0 23 -28 38 -62z m6957 -375 c-84
-73 -119 -150 -99 -219 7 -27 18 -39 44 -50 44 -18 75 -6 176 69 99 74 127 87
193 87 113 0 212 -85 229 -195 13 -82 -37 -205 -127 -309 l-39 -46 -51 37
c-29 20 -54 38 -56 40 -2 1 21 30 52 63 85 91 98 162 40 216 -35 33 -72 30
-127 -8 -26 -18 -78 -55 -116 -82 -61 -43 -78 -50 -128 -54 -150 -11 -269 124
-241 273 13 72 70 181 129 248 l52 57 59 -42 60 -41 -50 -44z m-6736 -90 c28
-42 51 -79 53 -83 2 -4 -69 -136 -158 -294 -88 -157 -160 -289 -160 -291 0 -3
108 67 240 155 132 88 244 160 249 160 10 0 96 -119 89 -124 -19 -17 -671
-447 -672 -444 -38 47 -106 163 -103 173 3 7 76 138 161 290 86 153 156 279
156 281 0 2 -108 -68 -240 -156 -132 -88 -244 -160 -249 -160 -6 0 -29 28 -52
61 -33 49 -39 63 -28 70 8 4 158 105 334 223 176 118 322 215 325 215 3 1 28
-34 55 -76z m6632 -587 l312 -239 -30 -41 c-16 -23 -38 -52 -48 -65 l-19 -25
-39 29 c-90 68 -550 421 -575 441 l-27 22 47 61 c25 34 51 60 57 59 6 -2 151
-111 322 -242z m-6034 -184 l167 -167 -285 -285 -285 -285 -170 170 -170 170
45 45 45 45 110 -110 110 -110 67 65 c37 36 70 66 72 68 3 1 -41 49 -97 105
l-102 103 45 44 45 44 98 -97 c53 -53 102 -97 107 -97 6 0 44 34 85 75 l75 75
-113 113 -112 112 42 43 c24 23 45 42 48 42 3 0 81 -75 173 -168z m5618 -187
c128 -129 237 -235 243 -235 6 0 45 35 88 77 l78 77 45 -44 45 -44 -217 -218
c-120 -120 -223 -218 -228 -218 -6 0 -29 18 -50 40 l-39 40 82 83 82 82 -240
240 -240 240 57 57 c32 32 59 58 60 58 2 0 107 -106 234 -235z m-5279 -116
c129 -65 216 -149 266 -256 36 -76 37 -189 4 -273 -31 -77 -117 -187 -182
-231 -164 -112 -378 -79 -545 83 -36 35 -65 68 -65 74 0 5 19 32 43 59 l43 49
23 -37 c55 -90 174 -153 267 -144 98 10 189 79 239 181 77 158 18 299 -163
383 -42 20 -79 38 -81 39 -8 7 62 104 75 104 8 0 42 -14 76 -31z m4616 -231
l92 -133 255 -114 c140 -63 255 -117 255 -120 0 -3 -34 -28 -75 -54 -57 -38
-79 -47 -97 -42 -13 4 -90 41 -172 82 -81 41 -150 73 -151 71 -2 -2 3 -77 11
-168 19 -233 25 -208 -56 -263 -39 -26 -70 -47 -70 -45 0 2 -9 129 -20 283
l-19 280 -91 132 -90 132 67 46 c37 25 68 45 69 45 0 0 42 -60 92 -132z m-478
-438 c22 -11 52 -39 67 -62 24 -36 28 -52 28 -113 0 -62 -4 -77 -28 -114 -30
-45 -109 -91 -157 -91 -147 0 -255 163 -191 288 57 110 172 148 281 92z m-690
15 c0 -3 45 -174 100 -380 55 -206 100 -378 100 -383 0 -9 -147 -49 -154 -41
-2 2 -39 135 -81 294 -43 160 -78 291 -79 292 -1 2 -24 -26 -50 -62 -26 -36
-51 -65 -55 -65 -13 0 -102 71 -99 79 2 4 41 60 88 124 80 109 88 116 135 130
53 16 95 21 95 12z m-2701 -31 c118 -59 150 -210 64 -305 -49 -54 -87 -72
-154 -72 -109 0 -189 74 -197 183 -12 162 142 266 287 194z m784 -44 c7 -6
-177 -764 -189 -778 -6 -8 -147 34 -151 44 -2 6 30 142 71 302 l74 291 -75
-35 c-42 -19 -77 -34 -79 -34 -10 0 -54 114 -47 121 5 5 66 35 138 67 l129 59
61 -15 c33 -8 64 -18 68 -22z m600 -76 c95 -32 159 -126 142 -207 -12 -56 -53
-115 -100 -143 l-45 -26 32 -21 c17 -12 45 -39 62 -60 29 -37 31 -43 31 -127
0 -82 -2 -91 -30 -131 -18 -26 -50 -53 -80 -68 -42 -22 -62 -26 -140 -26 -61
0 -107 7 -144 19 -187 64 -217 299 -50 395 l51 29 -31 21 c-77 55 -103 168
-60 258 38 79 118 116 239 108 41 -2 97 -12 123 -21z m648 16 c52 -14 114 -73
143 -134 59 -124 70 -338 26 -480 -18 -58 -32 -79 -78 -126 -49 -48 -67 -59
-124 -75 -70 -18 -210 -17 -229 2 -5 5 -6 37 -3 72 6 52 10 61 23 55 9 -3 45
-8 81 -11 123 -9 196 58 208 190 l5 62 -36 -31 c-48 -43 -97 -58 -170 -51 -82
7 -133 43 -171 121 -26 50 -30 71 -30 140 -1 137 53 221 164 260 52 17 139 20
191 6z"/>
<path d="M7880 9974 c-42 -18 -103 -75 -136 -126 -56 -88 -80 -222 -50 -291
29 -68 122 -127 200 -127 49 0 128 43 170 91 81 95 124 239 96 323 -37 113
-173 176 -280 130z"/>
<path d="M5864 8742 c-92 -60 -220 -177 -449 -408 l-210 -212 -70 -16 c-125
-29 -225 -67 -263 -100 -19 -17 -106 -110 -192 -206 -194 -216 -363 -380 -391
-380 -12 0 -54 20 -93 45 -45 28 -84 45 -103 45 -25 0 -66 -30 -217 -157 -275
-232 -264 -224 -289 -212 -12 6 -37 30 -56 55 -19 25 -42 44 -53 44 -44 0
-235 -122 -406 -259 -119 -97 -106 -72 -157 -300 -15 -62 -24 -116 -21 -119 3
-2 25 2 48 11 30 12 65 41 115 96 132 144 376 341 424 341 9 0 36 -22 59 -50
24 -29 50 -50 62 -50 10 0 63 35 116 78 53 43 162 127 241 186 164 122 156
121 257 55 33 -21 72 -39 87 -39 37 0 120 74 389 349 263 268 238 252 505 321
37 9 60 32 214 208 216 246 485 518 522 527 17 5 33 2 43 -6 30 -25 134 -167
269 -370 115 -173 149 -215 232 -293 92 -86 100 -97 153 -208 64 -133 50 -120
329 -321 84 -61 163 -125 175 -144 40 -63 93 -41 155 66 55 93 125 184 154
200 14 7 33 10 44 7 11 -4 57 -46 102 -94 45 -48 137 -142 204 -209 140 -141
137 -140 253 -93 61 24 99 32 199 39 75 6 135 16 154 25 16 9 36 16 44 16 21
0 121 -73 231 -169 245 -213 284 -246 333 -277 29 -19 55 -34 58 -34 12 0 3
42 -39 180 l-43 145 -54 43 c-70 55 -297 209 -374 253 -107 62 -118 64 -173
41 -31 -14 -82 -23 -143 -28 -52 -3 -113 -12 -137 -20 -23 -8 -64 -14 -90 -14
-44 0 -52 4 -92 46 -25 25 -69 59 -98 76 -29 16 -68 47 -86 67 -18 20 -63 70
-100 111 -67 75 -151 150 -167 150 -21 0 -104 -89 -154 -166 -63 -95 -95 -124
-140 -124 -25 0 -36 7 -56 37 -15 23 -82 77 -182 147 l-158 111 -57 104 c-32
59 -84 134 -117 171 -116 129 -182 206 -316 370 -171 210 -308 350 -341 350
-14 0 -51 -17 -84 -38z"/>
<path d="M5948 8312 c-20 -23 -38 -54 -173 -302 -65 -118 -130 -233 -145 -255
-14 -22 -48 -89 -74 -150 -108 -247 -190 -352 -225 -287 -5 9 -19 67 -31 127
-24 118 -40 159 -65 169 -9 3 -54 6 -100 6 -109 0 -97 13 -294 -321 -101 -171
-164 -251 -219 -277 -25 -12 -58 -48 -111 -122 -101 -140 -162 -203 -192 -198
-29 4 -36 31 -38 138 -1 41 -4 85 -7 97 -8 28 -56 43 -141 43 -50 0 -67 -4
-87 -22 -14 -13 -68 -97 -120 -188 -102 -178 -141 -221 -253 -276 -82 -41 -87
-35 -80 100 l5 114 -35 41 c-25 30 -42 41 -63 41 -45 0 -73 -45 -208 -343 -40
-86 -50 -91 -212 -84 -69 2 -145 2 -170 -2 -44 -6 -45 -7 -52 -51 -11 -73 -10
-466 2 -585 98 -977 630 -1841 1458 -2364 920 -582 2085 -645 3067 -166 669
327 1206 887 1505 1568 132 301 214 616 251 957 20 193 10 636 -17 747 -6 21
-6 21 -56 -10 -35 -22 -63 -32 -91 -32 -36 0 -45 6 -103 68 -35 38 -126 150
-202 250 -77 100 -151 193 -165 206 -32 29 -97 38 -165 21 -50 -12 -128 -55
-135 -75 -3 -5 9 -79 26 -162 31 -155 31 -200 -1 -211 -13 -4 -114 91 -143
135 -17 24 -160 112 -314 192 -55 28 -108 57 -117 64 -25 19 -38 61 -38 118 0
78 -66 189 -114 189 -25 0 -140 -122 -208 -222 -29 -43 -59 -80 -67 -83 -21
-8 -83 39 -148 113 -79 90 -135 115 -246 111 l-81 -4 -12 85 c-17 126 -43 184
-127 281 -39 47 -83 108 -96 136 -20 44 -31 55 -71 72 -52 22 -72 47 -225 271
-97 142 -230 323 -248 339 -11 8 -17 7 -29 -7z m-1412 -2367 c49 -9 124 -25
167 -37 l79 -21 -6 -31 c-2 -17 -10 -88 -17 -157 l-11 -127 -62 29 c-108 51
-214 72 -335 67 -168 -7 -275 -62 -356 -183 -51 -76 -75 -148 -82 -250 -10
-148 36 -273 134 -366 61 -58 133 -94 230 -114 116 -25 252 -14 396 32 43 13
81 22 84 19 3 -3 10 -69 15 -147 7 -111 6 -144 -3 -150 -7 -4 -65 -18 -128
-30 -94 -18 -149 -23 -286 -22 -151 0 -181 3 -270 26 -239 63 -411 191 -500
372 -57 115 -70 180 -70 350 0 174 13 234 77 365 77 158 243 293 422 345 158
46 362 57 522 30z m900 -550 c50 -297 93 -549 95 -560 3 -16 200 1067 199
1098 0 4 113 7 250 7 138 0 250 -4 250 -9 0 -15 200 -1104 203 -1108 2 -1 41
219 87 490 45 270 88 521 94 557 l12 65 187 3 c151 2 187 0 187 -11 0 -10
-280 -1274 -315 -1425 l-5 -22 -252 2 -251 3 -101 547 c-56 302 -104 548 -107
548 -3 0 -47 -247 -99 -550 l-94 -550 -253 0 -253 0 -5 23 c-22 92 -315 1419
-315 1427 0 7 67 10 197 8 l198 -3 91 -540z m2134 45 c4 -324 9 -506 17 -526
31 -87 79 -139 147 -159 144 -43 262 16 308 154 22 64 22 82 26 549 l3 482
195 0 195 0 -4 -517 c-3 -456 -6 -525 -21 -578 -54 -185 -175 -302 -371 -361
-81 -24 -106 -27 -245 -27 -127 0 -169 4 -233 21 -214 59 -345 187 -392 384
-12 51 -15 156 -15 571 l0 507 193 -2 192 -3 5 -495z"/>
<path d="M2781 9003 c2 -5 37 -73 78 -152 l74 -142 40 38 c21 21 56 59 78 84
l39 46 -138 61 c-171 76 -176 78 -171 65z"/>
<path d="M1758 6057 c-81 -29 -150 -55 -153 -59 -3 -3 31 -18 77 -33 46 -15
118 -41 161 -56 l77 -28 0 114 c0 63 -3 115 -7 114 -5 0 -74 -24 -155 -52z"/>
<path d="M1725 5223 c-30 -7 -63 -42 -70 -73 -3 -15 -1 -57 6 -94 8 -50 15
-66 28 -66 23 1 181 37 188 44 7 7 -14 92 -34 135 -10 20 -29 39 -49 47 -35
15 -36 15 -69 7z"/>
<path d="M10013 4671 c-9 -20 -18 -62 -21 -93 -4 -53 -3 -59 26 -87 32 -33 84
-41 123 -21 20 11 52 67 74 131 l13 37 -100 35 -100 34 -15 -36z"/>
<path d="M5606 2118 c-57 -50 -34 -130 48 -170 l44 -21 32 23 c63 45 75 129
23 170 -37 29 -113 28 -147 -2z"/>
<path d="M5605 1780 c-47 -31 -65 -61 -65 -108 0 -37 6 -50 34 -78 30 -30 40
-34 84 -34 66 0 101 28 109 87 7 53 -20 100 -75 131 -48 27 -50 27 -87 2z"/>
<path d="M6314 2139 c-34 -18 -54 -62 -54 -123 0 -66 19 -117 51 -140 26 -18
81 -21 110 -6 64 35 66 196 2 253 -25 22 -81 30 -109 16z"/>
<path d="M9070 1005 c0 -11 11 -15 40 -15 l40 0 0 -110 c0 -103 1 -110 20
-110 19 0 20 7 20 110 l0 110 40 0 c29 0 40 4 40 15 0 12 -18 15 -100 15 -82
0 -100 -3 -100 -15z"/>
<path d="M9300 896 c0 -119 1 -126 20 -126 19 0 20 7 21 103 1 114 -1 115 53
-30 39 -104 53 -100 104 30 l41 102 0 -102 c1 -96 2 -103 21 -103 19 0 20 7
20 126 l0 125 -32 -3 c-30 -3 -33 -7 -67 -100 -19 -54 -39 -94 -43 -90 -4 4
-22 48 -41 97 -32 85 -36 90 -66 93 l-31 3 0 -125z"/>
</g>
</svg>
